# AST/ASF file generated using VICON BodyLanguage
# -----------------------------------------------
:version 1.10
:name VICON
:units
  mass 1.0
  length 0.45
  angle deg
:documentation
   .ast/.asf automatically generated from VICON data using
   VICON BodyBuilder and BodyLanguage model FoxedUp or BRILLIANT.MOD
:root
   order TX TY TZ RX RY RZ
   axis XYZ
   position 0 0 0  
   orientation 0 0 0 
:bonedata
  begin
     id 1 
     name lhipjoint
     direction 0.621036 -0.695554 0.361275 
     length 2.46325 
     axis 0 0 0  XYZ
  end
  begin
     id 2 
     name lfemur
     direction 0.34202 -0.939693 0  
     length 6.54784  
     axis 0 0 20  XYZ
    dof rx ry rz
    limits (-160.0 20.0)
           (-70.0 70.0)
           (-60.0 70.0)
  end
  begin
     id 3 
     name ltibia
     direction 0.34202 -0.939693 0   
     length 7.84737   
     axis 0 0 20   XYZ
    dof rx
    limits (-10.0 170.0)
  end
  begin
     id 4 
     name lfoot
     direction 0.0790693 -0.217241 0.97291   
     length 2.59747   
     axis -90 7.62852e-016 20   XYZ
    dof rx rz
    limits (-45.0 90.0)
           (-70.0 20.0)
  end
  begin
     id 5 
     name ltoes
     direction 1.53572e-011 -4.21898e-011 1   
     length 1.29919   
     axis -90 7.62852e-016 20   XYZ
    dof rx
    limits (-90.0 20.0)
  end
  begin
     id 6 
     name rhipjoint
     direction -0.602353 -0.708375 0.367935   
     length 2.41867  
     axis 0 0 0  XYZ 
  end
  begin
     id 7 
     name rfemur
     direction -0.34202 -0.939693 0   
     length 6.92065   
     axis 0 0 -20   XYZ
    dof rx ry rz
    limits (-160.0 20.0)
           (-70.0 70.0)
           (-70.0 60.0)
  end
  begin
     id 8 
     name rtibia
     direction -0.34202 -0.939693 0   
     length 7.88883   
     axis 0 0 -20   XYZ
    dof rx
    limits (-10.0 170.0)
 end
 begin
     id 9 
     name rfoot
     direction -0.0768692 -0.211196 0.974416   
     length 2.43714  
     axis -90 -7.62852e-016 -20   XYZ
    dof rx rz
    limits (-45.0 90.0)
           (-20.0 70.0)
  end
  begin
     id 10 
     name rtoes
     direction -1.53575e-011 -4.21933e-011 1   
     length 1.22113   
     axis -90 -7.62852e-016 -20   XYZ
    dof rx
    limits (-90.0 20.0)
  end
  begin
     id 11 
     name lowerback
     direction 0.0197937 0.98943 -0.143655   
     length 2.16931   
     axis 0 0 0   XYZ
    dof rx ry rz
    limits (-20.0 45.0)
           (-30.0 30.0)
           (-30.0 30.0)
  end
  begin
     id 12 
     name upperback
     direction -0.00183968 0.999975 0.00684288   
     length 2.17221   
     axis 0 0 0   XYZ
    dof rx ry rz
    limits (-20.0 45.0)
           (-30.0 30.0)
           (-30.0 30.0)
  end
  begin
     id 13 
     name thorax
     direction -0.00950244 0.997208 0.0740685   
     length 2.22549   
     axis 0 0 0   XYZ
    dof rx ry rz
    limits (-20.0 45.0)
           (-30.0 30.0)
           (-30.0 30.0)
  end
  begin
     id 14 
     name lowerneck
     direction 0.0218238 0.996215 0.0841425   
     length 1.77269   
     axis 0 0 0   XYZ
    dof rx ry rz
    limits (-20.0 45.0)
           (-30.0 30.0)
           (-30.0 30.0)
  end
  begin
     id 15 
     name upperneck
     direction -0.00430652 0.994214 -0.107332   
     length 1.76534   
     axis 0 0 0   XYZ
    dof rx ry rz
    limits (-20.0 45.0)
           (-30.0 30.0)
           (-30.0 30.0)
  end
  begin
     id 16
     name head
     direction -0.00328946 0.998959 -0.0454998  
     length 1.82634  
     axis 0 0 0   XYZ
    dof rx ry rz
    limits (-20.0 45.0)
           (-30.0 30.0)
           (-30.0 30.0)
  end
  begin
     id 17 
     name lclavicle
     direction 0.970962 0.239191 0.00450212  
     length 3.84872  
     axis 0 0 0   XYZ
    dof ry rz
    limits (-20.0 10.0)
           (0.0 20.0)
  end
  begin
     id 18 
     name lhumerus
     direction 1 -4.48966e-011 5.74696e-028   
     length 5.22771   
     axis 180 -30 -90   XYZ
    dof rx ry rz
    limits (-60.0 90.0)
           (-90.0 90.0)
           (-90.0 90.0)
  end
  begin
     id 19
     name lradius
     direction 1 -4.4896e-011 4.25109e-027   
     length 3.45251   
     axis 180 -30 -90   XYZ
    dof rx
    limits (-10.0 170.0)
  end
  begin
     id 20
     name lwrist
     direction 1 -4.48971e-011 1.15382e-027   
     length 1.72626   
     axis -5.52449e-016 90 90   XYZ
    dof ry
    limits (-180.0 0.0)
 end
  begin
     id 21 
     name lhand
     direction 1 -4.49034e-011 2.30765e-027   
     length 0.552119   
     axis -1.47248e-015 90 90   XYZ
    dof rx rz
    limits (-90.0 90.0)
           (-45.0 45.0)
  end
  begin
     id 22 
     name lfingers
     direction 1 -4.48951e-011 4.61529e-027   
     length 0.445133   
     axis -2.94495e-015 90 90   XYZ
    dof rx
    limits (0.0 90.0)
  end
  begin
     id 23
     name lthumb
     direction 0.707107 -6.34991e-011 0.707107   
     length 0.639124   
     axis -90 45 2.85299e-015   XYZ
    dof rx rz
    limits (-45.0 45.0)
           (-45.0 45.0)
  end
  begin
     id 24 
     name rclavicle
     direction -0.97424 0.222511 -0.0366699   
     length 3.73439  
     axis 0 0 0   XYZ 
    dof ry rz
    limits (-10.0 20.0)
           (-20.0 0.0)
  end
  begin
     id 25 
     name rhumerus
     direction -1 -4.48956e-011 -4.97258e-028  
     length 5.2398   
     axis 180 30 90   XYZ
    dof rx ry rz
    limits (-90.0 60.0)
           (-90.0 90.0)
           (-90.0 90.0)
  end
  begin
     id 26 
     name rradius
     direction -1 -4.4897e-011 -1.72611e-027   
     length 3.48042   
     axis 180 30 90   XYZ
    dof rx
    limits (-10.0 170.0)
  end
  begin
     id 27 
     name rwrist
     direction -1 -4.48976e-011 1.15382e-027   
     length 1.74021   
     axis -5.52449e-016 -90 -90   XYZ
    dof ry
    limits (-180.0 0.0)
  end
  begin
     id 28
     name rhand
     direction -1 -4.48963e-011 2.30765e-027   
     length 0.618713   
     axis -1.47248e-015 -90 -90   XYZ
    dof rx rz
    limits (-90.0 90.0)
           (-45.0 45.0)
  end
  begin
     id 29
     name rfingers
     direction -1 -4.4888e-011 4.61529e-027   
     length 0.498823   
     axis -2.94495e-015 -90 -90   XYZ
    dof rx
    limits (0.0 90.0)
  end
  begin
     id 30
     name rthumb
     direction -0.707107 -6.34968e-011 0.707107   
     length 0.716213   
     axis -90 -45 -2.85299e-015   XYZ
    dof rx rz
    limits (-45.0 45.0)
           (-45.0 45.0)
  end
:hierarchy
  begin
    root lhipjoint rhipjoint lowerback
    lhipjoint lfemur
    lfemur ltibia
    ltibia lfoot
    lfoot ltoes
    rhipjoint rfemur
    rfemur rtibia
    rtibia rfoot
    rfoot rtoes
    lowerback upperback
    upperback thorax
    thorax lowerneck lclavicle rclavicle
    lowerneck upperneck
    upperneck head
    lclavicle lhumerus
    lhumerus lradius
    lradius lwrist
    lwrist lhand lthumb
    lhand lfingers
    rclavicle rhumerus
    rhumerus rradius
    rradius rwrist
    rwrist rhand rthumb
    rhand rfingers
  end

#!OML:ASF G:\JayActor3\Patient Classification 1\Patient 1\Session 5\male.ASF
:FULLY-SPECIFIED
:DEGREES
254
root 46.0401 14.7319 -4.82792 -157.639 88.2246 -171.103
lowerback 37.7079 -2.28068 1.15184
upperback 10.4729 -1.13403 -0.905339
thorax -6.98217 0.0399527 -1.19763
lowerneck -0.976833 -0.917261 2.73128
upperneck -25.6577 0.269284 2.00056
head -7.74556 0.146009 0.118509
rclavicle -2.56432e-014 -9.93923e-015
rhumerus -29.5145 -2.00379 -88.7333
rradius 48.6875
rwrist -8.92896
rhand -20.3787 -11.1809
rfingers 7.12502
rthumb 5.9742 -41.0767
lclavicle -2.56432e-014 -9.93923e-015
lhumerus -17.854 3.55179 80.7656
lradius 43.6527
lwrist 27.909
lhand -20.4534 10.8121
lfingers 7.12502
lthumb 5.90205 40.7099
rfemur -64.7415 -3.0614 12.4328
rtibia 84.1689
rfoot 9.82447 0.632958
rtoes -10.6735
lfemur -60.5497 9.49138 -17.88
ltibia 75.7867
lfoot 14.4338 -19.9474
ltoes -20.9889
255
root 46.0461 14.7255 -4.81971 -159.596 88.1901 -172.874
lowerback 37.7306 -2.24375 1.13107
upperback 10.465 -1.09599 -0.922846
thorax -6.99759 0.0589838 -1.2197
lowerneck -1.11289 -0.973166 2.69125
upperneck -25.5091 0.178439 2.01768
head -7.67124 0.10551 0.136765
rclavicle -8.15017e-015 4.77083e-015
rhumerus -29.5399 -2.01172 -88.7383
rradius 48.4973
rwrist -8.89741
rhand -20.3525 -11.1394
rfingers 7.12502
rthumb 5.9995 -41.0344
lclavicle -8.15017e-015 4.77083e-015
lhumerus -17.9127 3.74861 80.7216
lradius 43.6965
lwrist 27.9489
lhand -20.4931 10.7601
lfingers 7.12502
lthumb 5.86379 40.659
rfemur -64.8029 -3.02198 12.3945
rtibia 84.3849
rfoot 10.2926 0.425286
rtoes -10.6529
lfemur -60.468 9.37786 -17.8522
ltibia 75.9635
lfoot 14.7245 -19.8121
ltoes -20.7066
256
root 46.0517 14.7221 -4.812 -161.535 88.1695 -174.609
lowerback 37.7982 -2.20993 1.10428
upperback 10.4651 -1.06123 -0.946919
thorax -7.01935 0.0777245 -1.2442
lowerneck -1.23516 -1.02728 2.65508
upperneck -25.382 0.0922173 2.03418
head -7.60674 0.0668419 0.153669
rclavicle 1.59028e-015 1.39149e-015
rhumerus -29.5301 -1.98937 -88.7421
rradius 48.3204
rwrist -8.88735
rhand -20.3367 -11.0877
rfingers 7.12502
rthumb 6.01475 -40.9823
lclavicle 1.59028e-015 1.39149e-015
lhumerus -17.9688 3.94718 80.6813
lradius 43.7353
lwrist 27.989
lhand -20.5203 10.7324
lfingers 7.12502
lthumb 5.83753 40.632
rfemur -64.8447 -2.98158 12.3373
rtibia 84.5506
rfoot 10.8841 0.197908
rtoes -10.5453
lfemur -60.3402 9.26157 -17.8355
ltibia 76.0947
lfoot 14.9925 -19.6318
ltoes -20.4171
257
root 46.0568 14.7209 -4.80448 -163.407 88.1553 -176.269
lowerback 37.8926 -2.18107 1.06868
upperback 10.4755 -1.0332 -0.973194
thorax -7.03857 0.0943213 -1.26386
lowerneck -1.34287 -1.07812 2.64213
upperneck -25.2803 0.0103957 2.03344
head -7.55363 0.0295144 0.160483
rclavicle 1.98785e-016 -1.98785e-016
rhumerus -29.4798 -1.93641 -88.7455
rradius 48.1548
rwrist -8.88902
rhand -20.3284 -11.0301
rfingers 7.12502
rthumb 6.02281 -40.9245
lclavicle 1.98785e-016 -1.98785e-016
lhumerus -18.0235 4.14772 80.644
lradius 43.7691
lwrist 28.0345
lhand -20.5356 10.7215
lfingers 7.12502
lthumb 5.8227 40.6215
rfemur -64.8606 -2.94418 12.2671
rtibia 84.6805
rfoot 11.5277 -0.0212268
rtoes -10.4107
lfemur -60.1904 9.1457 -17.8296
ltibia 76.2072
lfoot 15.2191 -19.4199
ltoes -20.1284
258
root 46.0602 14.7339 -4.79724 -164.999 88.1338 -177.65
lowerback 38.0018 -2.16241 1.03334
upperback 10.496 -1.01517 -0.996836
thorax -7.05166 0.10702 -1.2771
lowerneck -1.41631 -1.11881 2.64458
upperneck -25.2172 -0.0567701 2.01443
head -7.51965 -0.000868115 0.157694
rclavicle -9.14409e-015 6.95746e-016
rhumerus -29.3867 -1.85776 -88.7489
rradius 47.9952
rwrist -8.89459
rhand -20.3207 -10.9813
rfingers 7.12502
rthumb 6.03025 -40.8755
lclavicle -9.14409e-015 6.95746e-016
lhumerus -18.0775 4.34283 80.6118
lradius 43.7988
lwrist 28.0971
lhand -20.5581 10.7266
lfingers 7.12502
lthumb 5.80102 40.6272
rfemur -64.7631 -2.90822 12.2032
rtibia 84.6976
rfoot 12.1562 -0.221703
rtoes -10.2964
lfemur -59.9606 9.02088 -17.8306
ltibia 76.2336
lfoot 15.3991 -19.1829
ltoes -19.8433
259
root 46.0645 14.7353 -4.78942 -165.783 88.1002 -178.231
lowerback 38.1133 -2.15581 1.01223
upperback 10.5272 -1.00432 -1.01207
thorax -7.05383 0.116896 -1.28616
lowerneck -1.48207 -1.15637 2.67184
upperneck -25.1693 -0.120816 1.97805
head -7.49241 -0.0306636 0.144722
rclavicle 6.95746e-015 1.68967e-014
rhumerus -29.2513 -1.7625 -88.7511
rradius 47.8416
rwrist -8.89652
rhand -20.3147 -10.9476
rfingers 7.12502
rthumb 6.03603 -40.8416
lclavicle 6.95746e-015 1.68967e-014
lhumerus -18.1292 4.5292 80.5876
lradius 43.8251
lwrist 28.172
lhand -20.581 10.7698
lfingers 7.12502
lthumb 5.77889 40.671
rfemur -64.6987 -2.88755 12.1581
rtibia 84.7497
rfoot 12.7403 -0.38301
rtoes -10.2777
lfemur -59.8138 8.91185 -17.8104
ltibia 76.3281
lfoot 15.5395 -18.9571
ltoes -19.5867
260
root 46.0684 14.7377 -4.78143 -165.67 88.0527 -177.927
lowerback 38.223 -2.16192 1.01233
upperback 10.566 -0.999304 -1.01723
thorax -7.04711 0.124329 -1.2934
lowerneck -1.49782 -1.17736 2.68535
upperneck -25.1671 -0.156899 1.94671
head -7.48909 -0.0463979 0.134156
rclavicle 1.76918e-014 1.96797e-014
rhumerus -29.0842 -1.65846 -88.749
rradius 47.6958
rwrist -8.89274
rhand -20.3001 -10.9388
rfingers 7.12502
rthumb 6.05009 -40.8324
lclavicle 1.76918e-014 1.96797e-014
lhumerus -18.1795 4.70131 80.5748
lradius 43.8422
lwrist 28.2527
lhand -20.6102 10.8358
lfingers 7.12502
lthumb 5.75068 40.7377
rfemur -64.5921 -2.8732 12.1463
rtibia 84.7622
rfoot 13.2522 -0.506124
rtoes -10.3578
lfemur -59.6786 8.81352 -17.7694
ltibia 76.4156
lfoot 15.6325 -18.7441
ltoes -19.356
261
root 46.072 14.7411 -4.77336 -164.875 87.9895 -176.96
lowerback 38.3233 -2.17978 1.0333
upperback 10.6093 -0.999859 -1.0129
thorax -7.03244 0.129165 -1.29937
lowerneck -1.47218 -1.1869 2.68869
upperneck -25.199 -0.173206 1.92064
head -7.50435 -0.0524063 0.125972
rclavicle 1.98785e-016 -5.86415e-015
rhumerus -28.8956 -1.561 -88.7397
rradius 47.5622
rwrist -8.87717
rhand -20.2837 -10.9499
rfingers 7.12502
rthumb 6.06595 -40.843
lclavicle 1.98785e-016 -5.86415e-015
lhumerus -18.2271 4.85684 80.577
lradius 43.8441
lwrist 28.3262
lhand -20.6555 10.8894
lfingers 7.12502
lthumb 5.70693 40.7925
rfemur -64.4566 -2.87122 12.1692
rtibia 84.7547
rfoot 13.6669 -0.584732
rtoes -10.5255
lfemur -59.5641 8.7259 -17.7148
ltibia 76.5128
lfoot 15.6508 -18.5678
ltoes -19.1726
262
root 46.0752 14.7451 -4.76527 -163.606 87.9133 -175.547
lowerback 38.4062 -2.20607 1.07209
upperback 10.6552 -1.00392 -1.00061
thorax -7.00942 0.132124 -1.30486
lowerneck -1.41304 -1.18718 2.67698
upperneck -25.2554 -0.172824 1.90504
head -7.5335 -0.0501296 0.122889
rclavicle -6.16232e-015 -4.96962e-016
rhumerus -28.6978 -1.47555 -88.722
rradius 47.4513
rwrist -8.85163
rhand -20.2778 -10.9588
rfingers 7.12502
rthumb 6.07158 -40.8518
lclavicle -6.16232e-015 -4.96962e-016
lhumerus -18.2693 4.99267 80.5958
lradius 43.8256
lwrist 28.3823
lhand -20.6934 10.9454
lfingers 7.12502
lthumb 5.67035 40.8495
rfemur -64.3108 -2.88247 12.2281
rtibia 84.7215
rfoot 13.9989 -0.649087
rtoes -10.7208
lfemur -59.4742 8.65127 -17.6522
ltibia 76.6001
lfoot 15.6089 -18.4236
ltoes -19.048
263
root 46.0779 14.7498 -4.75715 -161.983 87.8268 -173.809
lowerback 38.4704 -2.23766 1.12662
upperback 10.7001 -1.00914 -0.981358
thorax -6.98133 0.134069 -1.31075
lowerneck -1.37123 -1.18787 2.67475
upperneck -25.2871 -0.175843 1.88504
head -7.55144 -0.0500927 0.116929
rclavicle -2.24627e-014 -2.0276e-014
rhumerus -28.5074 -1.40944 -88.6951
rradius 47.3773
rwrist -8.81425
rhand -20.2955 -10.9641
rfingers 7.12502
rthumb 6.05457 -40.8576
lclavicle -2.24627e-014 -2.0276e-014
lhumerus -18.3068 5.10732 80.631
lradius 43.7851
lwrist 28.4115
lhand -20.7059 11.0153
lfingers 7.12502
lthumb 5.65829 40.9198
rfemur -64.1712 -2.90789 12.3272
rtibia 84.6726
rfoot 14.2483 -0.712789
rtoes -10.8914
lfemur -59.4071 8.59194 -17.5833
ltibia 76.6748
lfoot 15.5012 -18.3144
ltoes -18.9748
264
root 46.0803 14.7549 -4.7491 -160.255 87.7368 -171.998
lowerback 38.5155 -2.27015 1.19049
upperback 10.7432 -1.01309 -0.958999
thorax -6.94909 0.136122 -1.31873
lowerneck -1.34916 -1.18952 2.67813
upperneck -25.2919 -0.182318 1.86519
head -7.5569 -0.0523037 0.11026
rclavicle -8.15017e-015 -1.64991e-014
rhumerus -28.3361 -1.36273 -88.6607
rradius 47.3521
rwrist -8.76951
rhand -20.3424 -10.9629
rfingers 7.12502
rthumb 6.00925 -40.8577
lclavicle -8.15017e-015 -1.64991e-014
lhumerus -18.3376 5.19584 80.6816
lradius 43.7243
lwrist 28.4101
lhand -20.6916 11.1035
lfingers 7.12502
lthumb 5.67213 41.0075
rfemur -64.0504 -2.94595 12.4595
rtibia 84.6174
rfoot 14.423 -0.798025
rtoes -10.9918
lfemur -59.3587 8.5471 -17.5156
ltibia 76.7343
lfoot 15.3249 -18.2434
ltoes -18.9603
265
root 46.082 14.7602 -4.74112 -158.684 87.6529 -170.378
lowerback 38.5436 -2.29818 1.2475
upperback 10.7816 -1.0159 -0.936457
thorax -6.91629 0.13798 -1.32339
lowerneck -1.33353 -1.18869 2.68783
upperneck -25.2834 -0.18637 1.84402
head -7.55685 -0.0539105 0.101934
rclavicle -1.03368e-014 -5.36719e-015
rhumerus -28.1907 -1.32501 -88.6207
rradius 47.3832
rwrist -8.72595
rhand -20.4075 -10.9625
rfingers 7.12502
rthumb 5.9464 -40.8591
lclavicle -1.03368e-014 -5.36719e-015
lhumerus -18.3649 5.26283 80.7446
lradius 43.6481
lwrist 28.3755
lhand -20.6667 11.1687
lfingers 7.12502
lthumb 5.69618 41.0721
rfemur -63.9669 -2.99472 12.6109
rtibia 84.566
rfoot 14.5377 -0.926226
rtoes -10.9717
lfemur -59.332 8.51619 -17.4618
ltibia 76.7782
lfoot 15.0772 -18.2141
ltoes -19.0217
266
root 46.0829 14.7654 -4.73334 -157.448 87.5826 -169.123
lowerback 38.5644 -2.31901 1.28847
upperback 10.8118 -1.01803 -0.917552
thorax -6.89 0.139359 -1.32383
lowerneck -1.31411 -1.18433 2.70247
upperneck -25.2709 -0.186174 1.81977
head -7.55611 -0.0538235 0.09152
rclavicle 1.74931e-014 1.09332e-014
rhumerus -28.0774 -1.29197 -88.578
rradius 47.4724
rwrist -8.68368
rhand -20.4822 -10.9637
rfingers 7.12502
rthumb 5.87432 -40.8622
lclavicle 1.74931e-014 1.09332e-014
lhumerus -18.3911 5.30433 80.8156
lradius 43.5575
lwrist 28.3115
lhand -20.6347 11.2027
lfingers 7.12502
lthumb 5.72705 41.1053
rfemur -63.9243 -3.05435 12.7678
rtibia 84.5233
rfoot 14.6079 -1.09316
rtoes -10.8254
lfemur -59.3217 8.49686 -17.4329
ltibia 76.8053
lfoot 14.7669 -18.2107
ltoes -19.1114
267
root 46.0828 14.7708 -4.72583 -156.661 87.528 -168.348
lowerback 38.583 -2.33299 1.30885
upperback 10.8334 -1.02159 -0.905214
thorax -6.87223 0.139381 -1.31996
lowerneck -1.28282 -1.1779 2.72572
upperneck -25.2681 -0.182184 1.79325
head -7.5608 -0.0526257 0.0786799
rclavicle -1.33186e-014 -4.96962e-015
rhumerus -27.9896 -1.2604 -88.5357
rradius 47.6101
rwrist -8.64777
rhand -20.5533 -10.9648
rfingers 7.12502
rthumb 5.80567 -40.8652
lclavicle -1.33186e-014 -4.96962e-015
lhumerus -18.4201 5.31509 80.8911
lradius 43.4657
lwrist 28.2257
lhand -20.6022 11.2164
lfingers 7.12502
lthumb 5.7584 41.1181
rfemur -63.9253 -3.12226 12.9151
rtibia 84.4903
rfoot 14.6468 -1.29479
rtoes -10.5703
lfemur -59.3281 8.48364 -17.4391
ltibia 76.8164
lfoot 14.3954 -18.222
ltoes -19.2032
